{
  "accessors": [
    {
      "bufferView": 2,
      "componentType": 5126,
      "count": 10928,
      "max": [
        109.06510162353516,
        49.466800689697266,
        69.2573013305664
      ],
      "min": [
        -96.71156311035156,
        -26.651090621948242,
        -35.912010192871094
      ],
      "type": "VEC3"
    },
    {
      "bufferView": 2,
      "byteOffset": 131136,
      "componentType": 5126,
      "count": 10928,
      "max": [
        0.9998209476470947,
        0.9998877048492432,
        1.0
      ],
      "min": [
        -0.9998869895935059,
        -0.9999451041221619,
        -1.0
      ],
      "type": "VEC3"
    },
    {
      "bufferView": 1,
      "componentType": 5126,
      "count": 10928,
      "max": [
        0.9521250128746033,
        0.41016000509262085
      ],
      "min": [
        0.263480007648468,
        0.06095999851822853
      ],
      "type": "VEC2"
    },
    {
      "bufferView": 0,
      "componentType": 5125,
      "count": 25056,
      "type": "SCALAR"
    },
    {
      "bufferView": 2,
      "byteOffset": 262272,
      "componentType": 5126,
      "count": 10876,
      "max": [
        7.178761959075928,
        2.447484016418457,
        0.7300099730491638
      ],
      "min": [
        -5.7033281326293945,
        -25.88051986694336,
        -0.5880399942398071
      ],
      "type": "VEC3"
    },
    {
      "bufferView": 2,
      "byteOffset": 392784,
      "componentType": 5126,
      "count": 10876,
      "max": [
        0.9998152852058411,
        0.9997207522392273,
        0.9996436834335327
      ],
      "min": [
        -0.9998869895935059,
        -0.9999436736106873,
        -1.0
      ],
      "type": "VEC3"
    },
    {
      "bufferView": 1,
      "byteOffset": 87424,
      "componentType": 5126,
      "count": 10876,
      "max": [
        0.9521250128746033,
        0.2163120061159134
      ],
      "min": [
        0.7952380180358887,
        0.06095999851822853
      ],
      "type": "VEC2"
    },
    {
      "bufferView": 0,
      "byteOffset": 100224,
      "componentType": 5125,
      "count": 25038,
      "type": "SCALAR"
    },
    {
      "bufferView": 2,
      "byteOffset": 523296,
      "componentType": 5126,
      "count": 10851,
      "max": [
        9.174871444702148,
        3.2375741004943848,
        5.119640827178955
      ],
      "min": [
        -15.333820343017578,
        -24.902509689331055,
        -0.6400039792060852
      ],
      "type": "VEC3"
    },
    {
      "bufferView": 2,
      "byteOffset": 653508,
      "componentType": 5126,
      "count": 10851,
      "max": [
        0.9998446106910706,
        0.9997202754020691,
        0.9744760394096375
      ],
      "min": [
        -0.9998869895935059,
        -0.9999435544013977,
        -0.9999998807907104
      ],
      "type": "VEC3"
    },
    {
      "bufferView": 1,
      "byteOffset": 174432,
      "componentType": 5126,
      "count": 10851,
      "max": [
        0.9679980278015137,
        0.46802499890327454
      ],
      "min": [
        0.914260983467102,
        0.13404199481010437
      ],
      "type": "VEC2"
    },
    {
      "bufferView": 0,
      "byteOffset": 200376,
      "componentType": 5125,
      "count": 25428,
      "type": "SCALAR"
    },
    {
      "bufferView": 2,
      "byteOffset": 783720,
      "componentType": 5126,
      "count": 11158,
      "max": [
        9.443120002746582,
        7.446030139923096,
        13.106229782104492
      ],
      "min": [
        -11.616279602050781,
        -21.64760971069336,
        -1.0228610038757324
      ],
      "type": "VEC3"
    },
    {
      "bufferView": 2,
      "byteOffset": 917616,
      "componentType": 5126,
      "count": 11158,
      "max": [
        0.999749481678009,
        0.9999999403953552,
        1.0
      ],
      "min": [
        -0.9997494220733643,
        -0.9995458722114563,
        -1.0
      ],
      "type": "VEC3"
    },
    {
      "bufferView": 1,
      "byteOffset": 261240,
      "componentType": 5126,
      "count": 11158,
      "max": [
        0.9679980278015137,
        0.5937020182609558
      ],
      "min": [
        0.7858930230140686,
        0.1358889937400818
      ],
      "type": "VEC2"
    },
    {
      "bufferView": 0,
      "byteOffset": 302088,
      "componentType": 5125,
      "count": 36426,
      "type": "SCALAR"
    },
    {
      "bufferView": 2,
      "byteOffset": 1051512,
      "componentType": 5126,
      "count": 12988,
      "max": [
        12.573280334472656,
        10.210140228271484,
        15.3533296585083
      ],
      "min": [
        -14.24804973602295,
        -27.09140968322754,
        -1.0083600282669067
      ],
      "type": "VEC3"
    },
    {
      "bufferView": 2,
      "byteOffset": 1207368,
      "componentType": 5126,
      "count": 12988,
      "max": [
        0.999985933303833,
        0.9986885190010071,
        0.9997193813323975
      ],
      "min": [
        -0.9997077584266663,
        -0.9982718825340271,
        -1.0
      ],
      "type": "VEC3"
    },
    {
      "bufferView": 1,
      "byteOffset": 350504,
      "componentType": 5126,
      "count": 12988,
      "max": [
        0.9679980278015137,
        0.5937020182609558
      ],
      "min": [
        0.7858930230140686,
        0.1409270018339157
      ],
      "type": "VEC2"
    },
    {
      "bufferView": 0,
      "byteOffset": 447792,
      "componentType": 5125,
      "count": 39126,
      "type": "SCALAR"
    },
    {
      "bufferView": 2,
      "byteOffset": 1363224,
      "componentType": 5126,
      "count": 13075,
      "max": [
        9.513296127319336,
        12.52103042602539,
        17.01689910888672
      ],
      "min": [
        -6.296541213989258,
        -26.37928009033203,
        -0.8754199743270874
      ],
      "type": "VEC3"
    },
    {
      "bufferView": 2,
      "byteOffset": 1520124,
      "componentType": 5126,
      "count": 13075,
      "max": [
        0.9998452663421631,
        0.9977971911430359,
        0.9998913407325745
      ],
      "min": [
        -0.9997167587280273,
        -0.9982842206954956,
        -1.0
      ],
      "type": "VEC3"
    },
    {
      "bufferView": 1,
      "byteOffset": 454408,
      "componentType": 5126,
      "count": 13075,
      "max": [
        0.9679980278015137,
        0.46802499890327454
      ],
      "min": [
        0.7942749857902527,
        0.05817599967122078
      ],
      "type": "VEC2"
    },
    {
      "bufferView": 0,
      "byteOffset": 604296,
      "componentType": 5125,
      "count": 39000,
      "type": "SCALAR"
    },
    {
      "bufferView": 2,
      "byteOffset": 1677024,
      "componentType": 5126,
      "count": 19031,
      "max": [
        23.87664031982422,
        17.219970703125,
        12.272489547729492
      ],
      "min": [
        -25.87257957458496,
        -24.967859268188477,
        -4.317442893981934
      ],
      "type": "VEC3"
    },
    {
      "bufferView": 2,
      "byteOffset": 1905396,
      "componentType": 5126,
      "count": 19031,
      "max": [
        0.9999945759773254,
        0.9999716281890869,
        0.9999892711639404
      ],
      "min": [
        -0.9999709129333496,
        -0.9999431371688843,
        -1.0
      ],
      "type": "VEC3"
    },
    {
      "bufferView": 1,
      "byteOffset": 559008,
      "componentType": 5126,
      "count": 19031,
      "max": [
        0.9521250128746033,
        0.5954629778862
      ],
      "min": [
        0.7803249955177307,
        0.05817599967122078
      ],
      "type": "VEC2"
    },
    {
      "bufferView": 0,
      "byteOffset": 760296,
      "componentType": 5125,
      "count": 55815,
      "type": "SCALAR"
    },
    {
      "bufferView": 2,
      "byteOffset": 2133768,
      "componentType": 5126,
      "count": 13135,
      "max": [
        11.722809791564941,
        8.665005683898926,
        13.39268970489502
      ],
      "min": [
        -21.64558982849121,
        -20.638690948486328,
        -2.629132032394409
      ],
      "type": "VEC3"
    },
    {
      "bufferView": 2,
      "byteOffset": 2291388,
      "componentType": 5126,
      "count": 13135,
      "max": [
        0.9999348521232605,
        0.999951183795929,
        0.9999865889549255
      ],
      "min": [
        -0.9999710321426392,
        -0.9999451041221619,
        -0.9999977350234985
      ],
      "type": "VEC3"
    },
    {
      "bufferView": 1,
      "byteOffset": 711256,
      "componentType": 5126,
      "count": 13135,
      "max": [
        0.9521250128746033,
        0.2163120061159134
      ],
      "min": [
        0.8231340050697327,
        0.06454899907112122
      ],
      "type": "VEC2"
    },
    {
      "bufferView": 0,
      "byteOffset": 983556,
      "componentType": 5125,
      "count": 34692,
      "type": "SCALAR"
    },
    {
      "bufferView": 2,
      "byteOffset": 2449008,
      "componentType": 5126,
      "count": 10112,
      "max": [
        8.985795021057129,
        -1.1464550495147705,
        0.730010986328125
      ],
      "min": [
        -5.610917091369629,
        -17.682619094848633,
        -0.57921302318573
      ],
      "type": "VEC3"
    },
    {
      "bufferView": 2,
      "byteOffset": 2570352,
      "componentType": 5126,
      "count": 10112,
      "max": [
        0.9999035596847534,
        0.9997997283935547,
        0.97447669506073
      ],
      "min": [
        -0.9998869895935059,
        -0.9999441504478455,
        -0.9786088466644287
      ],
      "type": "VEC3"
    },
    {
      "bufferView": 1,
      "byteOffset": 816336,
      "componentType": 5126,
      "count": 10112,
      "max": [
        0.9521250128746033,
        0.2163120061159134
      ],
      "min": [
        0.9312949776649475,
        0.13404199481010437
      ],
      "type": "VEC2"
    },
    {
      "bufferView": 0,
      "byteOffset": 1122324,
      "componentType": 5125,
      "count": 23040,
      "type": "SCALAR"
    },
    {
      "bufferView": 2,
      "byteOffset": 2691696,
      "componentType": 5126,
      "count": 13335,
      "max": [
        24.24176025390625,
        17.512649536132813,
        13.392789840698242
      ],
      "min": [
        -26.828479766845703,
        -29.77259063720703,
        -4.317637920379639
      ],
      "type": "VEC3"
    },
    {
      "bufferView": 2,
      "byteOffset": 2851716,
      "componentType": 5126,
      "count": 13335,
      "max": [
        0.9999666213989258,
        0.9999273419380188,
        0.999983012676239
      ],
      "min": [
        -0.9998903870582581,
        -0.9999457597732544,
        -0.999998927116394
      ],
      "type": "VEC3"
    },
    {
      "bufferView": 1,
      "byteOffset": 897232,
      "componentType": 5126,
      "count": 13335,
      "max": [
        0.9771289825439453,
        0.495386004447937
      ],
      "min": [
        0.29188698530197144,
        0.06454899907112122
      ],
      "type": "VEC2"
    },
    {
      "bufferView": 0,
      "byteOffset": 1214484,
      "componentType": 5125,
      "count": 34824,
      "type": "SCALAR"
    },
    {
      "bufferView": 2,
      "byteOffset": 3011736,
      "componentType": 5126,
      "count": 1896,
      "max": [
        8.985795021057129,
        0.6868259906768799,
        0.730010986328125
      ],
      "min": [
        -6.78688907623291,
        -8.286028861999512,
        -0.5338860154151917
      ],
      "type": "VEC3"
    },
    {
      "bufferView": 2,
      "byteOffset": 3034488,
      "componentType": 5126,
      "count": 1896,
      "max": [
        0.9998152256011963,
        0.9997206926345825,
        0.9744746685028076
      ],
      "min": [
        -0.9998869895935059,
        -0.9999436736106873,
        -0.9786038398742676
      ],
      "type": "VEC3"
    },
    {
      "bufferView": 1,
      "byteOffset": 1003912,
      "componentType": 5126,
      "count": 1896,
      "max": [
        0.9521250128746033,
        0.2163120061159134
      ],
      "min": [
        0.9312949776649475,
        0.13404199481010437
      ],
      "type": "VEC2"
    },
    {
      "bufferView": 0,
      "byteOffset": 1353780,
      "componentType": 5125,
      "count": 4320,
      "type": "SCALAR"
    }
  ],
  "asset": {
    "extras": {
      "author": "Digital screen official (https://sketchfab.com/ck212575)",
      "license": "SKETCHFAB Standard (https://sketchfab.com/licenses)",
      "source": "https://sketchfab.com/3d-models/low-poly-forest-2-2c8de37c9234451caa0d44e240b98c5a",
      "title": "low poly forest 2"
    },
    "generator": "Sketchfab-16.12.0",
    "version": "2.0"
  },
  "bufferViews": [
    {
      "buffer": 0,
      "byteLength": 1371060,
      "name": "floatBufferViews",
      "target": 34963
    },
    {
      "buffer": 0,
      "byteLength": 1019080,
      "byteOffset": 1371060,
      "byteStride": 8,
      "name": "floatBufferViews",
      "target": 34962
    },
    {
      "buffer": 0,
      "byteLength": 3057240,
      "byteOffset": 2390140,
      "byteStride": 12,
      "name": "floatBufferViews",
      "target": 34962
    }
  ],
  "buffers": [
    {
      "byteLength": 5447380,
      "uri": "scene.bin"
    }
  ],
  "extensionsUsed": [
    "KHR_materials_specular"
  ],
  "images": [
    {
      "uri": "textures/Material_baseColor.jpeg"
    },
    {
      "uri": "textures/Material_metallicRoughness.png"
    }
  ],
  "materials": [
    {
      "doubleSided": true,
      "extensions": {
        "KHR_materials_specular": {
          "specularColorFactor": [
            1.0,
            1.0,
            1.0
          ],
          "specularFactor": 0.3058512855408226
        }
      },
      "name": "Material",
      "pbrMetallicRoughness": {
        "baseColorTexture": {
          "index": 0
        },
        "metallicFactor": 0.0,
        "metallicRoughnessTexture": {
          "index": 1
        }
      }
    }
  ],
  "meshes": [
    {
      "name": "Object_0",
      "primitives": [
        {
          "attributes": {
            "NORMAL": 1,
            "POSITION": 0,
            "TEXCOORD_0": 2
          },
          "indices": 3,
          "material": 0,
          "mode": 4
        }
      ]
    },
    {
      "name": "Object_1",
      "primitives": [
        {
          "attributes": {
            "NORMAL": 5,
            "POSITION": 4,
            "TEXCOORD_0": 6
          },
          "indices": 7,
          "material": 0,
          "mode": 4
        }
      ]
    },
    {
      "name": "Object_2",
      "primitives": [
        {
          "attributes": {
            "NORMAL": 9,
            "POSITION": 8,
            "TEXCOORD_0": 10
          },
          "indices": 11,
          "material": 0,
          "mode": 4
        }
      ]
    },
    {
      "name": "Object_3",
      "primitives": [
        {
          "attributes": {
            "NORMAL": 13,
            "POSITION": 12,
            "TEXCOORD_0": 14
          },
          "indices": 15,
          "material": 0,
          "mode": 4
        }
      ]
    },
    {
      "name": "Object_4",
      "primitives": [
        {
          "attributes": {
            "NORMAL": 17,
            "POSITION": 16,
            "TEXCOORD_0": 18
          },
          "indices": 19,
          "material": 0,
          "mode": 4
        }
      ]
    },
    {
      "name": "Object_5",
      "primitives": [
        {
          "attributes": {
            "NORMAL": 21,
            "POSITION": 20,
            "TEXCOORD_0": 22
          },
          "indices": 23,
          "material": 0,
          "mode": 4
        }
      ]
    },
    {
      "name": "Object_6",
      "primitives": [
        {
          "attributes": {
            "NORMAL": 25,
            "POSITION": 24,
            "TEXCOORD_0": 26
          },
          "indices": 27,
          "material": 0,
          "mode": 4
        }
      ]
    },
    {
      "name": "Object_7",
      "primitives": [
        {
          "attributes": {
            "NORMAL": 29,
            "POSITION": 28,
            "TEXCOORD_0": 30
          },
          "indices": 31,
          "material": 0,
          "mode": 4
        }
      ]
    },
    {
      "name": "Object_8",
      "primitives": [
        {
          "attributes": {
            "NORMAL": 33,
            "POSITION": 32,
            "TEXCOORD_0": 34
          },
          "indices": 35,
          "material": 0,
          "mode": 4
        }
      ]
    },
    {
      "name": "Object_9",
      "primitives": [
        {
          "attributes": {
            "NORMAL": 37,
            "POSITION": 36,
            "TEXCOORD_0": 38
          },
          "indices": 39,
          "material": 0,
          "mode": 4
        }
      ]
    },
    {
      "name": "Object_10",
      "primitives": [
        {
          "attributes": {
            "NORMAL": 41,
            "POSITION": 40,
            "TEXCOORD_0": 42
          },
          "indices": 43,
          "material": 0,
          "mode": 4
        }
      ]
    }
  ],
  "nodes": [
    {
      "children": [
        1
      ],
      "matrix": [
        1.0,
        0.0,
        0.0,
        0.0,
        0.0,
        2.220446049250313e-16,
        -1.0,
        0.0,
        0.0,
        1.0,
        2.220446049250313e-16,
        0.0,
        0.0,
        0.0,
        0.0,
        1.0
      ],
      "name": "Sketchfab_model"
    },
    {
      "children": [
        2,
        3,
        4,
        5,
        6,
        7,
        8,
        9,
        10,
        11,
        12
      ],
      "name": "low poly forest 2.obj.cleaner.materialmerger.gles"
    },
    {
      "mesh": 0,
      "name": "Object_2"
    },
    {
      "mesh": 1,
      "name": "Object_3"
    },
    {
      "mesh": 2,
      "name": "Object_4"
    },
    {
      "mesh": 3,
      "name": "Object_5"
    },
    {
      "mesh": 4,
      "name": "Object_6"
    },
    {
      "mesh": 5,
      "name": "Object_7"
    },
    {
      "mesh": 6,
      "name": "Object_8"
    },
    {
      "mesh": 7,
      "name": "Object_9"
    },
    {
      "mesh": 8,
      "name": "Object_10"
    },
    {
      "mesh": 9,
      "name": "Object_11"
    },
    {
      "mesh": 10,
      "name": "Object_12"
    }
  ],
  "samplers": [
    {
      "magFilter": 9729,
      "minFilter": 9987,
      "wrapS": 10497,
      "wrapT": 10497
    }
  ],
  "scene": 0,
  "scenes": [
    {
      "name": "Sketchfab_Scene",
      "nodes": [
        0
      ]
    }
  ],
  "textures": [
    {
      "sampler": 0,
      "source": 0
    },
    {
      "sampler": 0,
      "source": 1
    }
  ]
}
